<svg width="132" height="100" viewBox="0 0 132 100" fill="none" xmlns="http://www.w3.org/2000/svg">
<path d="M0 3.0108C0 1.38449 1.38085 0.100318 3.00288 0.218158L128.443 9.33132C129.907 9.43767 131.04 10.6563 131.04 12.124V58.7273C131.04 60.4999 129.414 61.8264 127.677 61.4702L2.23735 35.7389C0.934947 35.4718 0 34.3256 0 32.9961V3.0108Z" fill="#E74B4C"/>
<path d="M45.4534 50.242V50.2413C45.4534 48.1889 46.1466 46.408 47.5551 44.8616C49.1004 43.1648 50.6336 41.4898 52.1545 39.8366C53.4602 38.4404 54.5869 36.9199 55.5334 35.2757C56.4174 33.7399 57.4708 32.296 58.6948 30.9436L58.7042 30.9333L58.7133 30.9225C59.611 29.8616 60.6488 28.9871 61.8289 28.2953C62.9616 27.6313 64.1867 27.3 65.5201 27.3C66.863 27.3 68.0948 27.6143 69.2303 28.2408C70.4013 28.8868 71.4328 29.7353 72.3268 30.7919L72.3267 30.792L72.3359 30.8024C73.5198 32.1554 74.5668 33.6143 75.4772 35.1796C76.4442 36.8422 77.5783 38.3921 78.8786 39.8289L78.8786 39.829L78.8835 39.8344C80.4068 41.4882 81.9405 43.1638 83.4847 44.8612C84.8917 46.4078 85.5851 48.1891 85.5867 50.2419C85.5866 52.0883 84.9939 53.6644 83.8034 55.0109C82.6292 56.339 81.2127 56.9815 79.5021 56.98H79.5014C77.1963 56.98 74.9131 56.7879 72.6514 56.4038C70.2962 56.0039 67.919 55.804 65.5201 55.804C63.1211 55.804 60.7439 56.0039 58.3888 56.4038C56.127 56.7879 53.8438 56.98 51.5387 56.98C49.8256 56.98 48.4079 56.337 47.2337 55.0105C46.0437 53.6661 45.4518 52.0904 45.4534 50.242ZM45.9201 30.8466C44.3075 30.8466 42.9767 30.2994 41.8754 29.198C40.774 28.0966 40.2267 26.7659 40.2267 25.1533C40.2267 23.5407 40.774 22.21 41.8754 21.1086C42.9767 20.0072 44.3075 19.46 45.9201 19.46C47.5326 19.46 48.8634 20.0072 49.9648 21.1086C51.0661 22.21 51.6134 23.5407 51.6134 25.1533C51.6134 26.7659 51.0661 28.0966 49.9648 29.198C48.8634 30.2994 47.5326 30.8466 45.9201 30.8466ZM57.6801 20.3933C56.0675 20.3933 54.7367 19.846 53.6354 18.7447C52.534 17.6433 51.9867 16.3125 51.9867 14.7C51.9867 13.0874 52.534 11.7566 53.6354 10.6553C54.7367 9.55388 56.0675 9.00663 57.6801 9.00663C59.2926 9.00663 60.6234 9.55388 61.7248 10.6553C62.8261 11.7566 63.3734 13.0874 63.3734 14.7C63.3734 16.3125 62.8261 17.6433 61.7248 18.7447C60.6234 19.846 59.2926 20.3933 57.6801 20.3933ZM73.3601 20.3933C71.7475 20.3933 70.4167 19.846 69.3154 18.7447C68.214 17.6433 67.6667 16.3125 67.6667 14.7C67.6667 13.0874 68.214 11.7566 69.3154 10.6553C70.4167 9.55388 71.7475 9.00663 73.3601 9.00663C74.9726 9.00663 76.3034 9.55388 77.4048 10.6553C78.5061 11.7566 79.0534 13.0874 79.0534 14.7C79.0534 16.3125 78.5061 17.6433 77.4048 18.7447C76.3034 19.846 74.9726 20.3933 73.3601 20.3933ZM85.1201 30.8466C83.5075 30.8466 82.1767 30.2994 81.0754 29.198C79.974 28.0966 79.4267 26.7659 79.4267 25.1533C79.4267 23.5407 79.974 22.21 81.0754 21.1086C82.1767 20.0072 83.5075 19.46 85.1201 19.46C86.7326 19.46 88.0634 20.0072 89.1648 21.1086C90.2661 22.21 90.8134 23.5407 90.8134 25.1533C90.8134 26.7659 90.2661 28.0966 89.1648 29.198C88.0634 30.2994 86.7326 30.8466 85.1201 30.8466Z" fill="#424242" stroke="white" stroke-width="1.68"/>
<path d="M5.00234 82.0815C4.70143 82.0815 4.46418 82.0236 4.29058 81.9079C4.11698 81.7921 3.98967 81.6591 3.90866 81.5086C3.83922 81.3581 3.79293 81.254 3.76978 81.1961L0.5061 71.7349C0.355646 71.2488 0.3325 70.8901 0.43666 70.6586C0.540819 70.4156 0.841726 70.213 1.33938 70.051C1.66343 69.9468 1.92383 69.9005 2.12058 69.9121C2.3289 69.9237 2.49671 70.0047 2.62402 70.1552C2.7629 70.3056 2.88442 70.5429 2.98858 70.8669L5.15858 77.3075L6.98138 70.9537C7.0161 70.838 7.06818 70.7049 7.13762 70.5544C7.21863 70.404 7.34594 70.2709 7.51954 70.1552C7.69314 70.0394 7.93618 69.9816 8.24866 69.9816C8.60743 69.9816 8.87362 70.0452 9.04722 70.1725C9.23239 70.2998 9.3597 70.4387 9.42914 70.5892C9.49858 70.7396 9.55066 70.8553 9.58538 70.9364L11.4255 77.3422L13.5782 70.8843C13.6823 70.5602 13.7981 70.323 13.9254 70.1725C14.0643 70.0105 14.2379 69.9179 14.4462 69.8948C14.6661 69.8716 14.938 69.9179 15.2621 70.0336C15.6093 70.1609 15.8523 70.294 15.9912 70.4329C16.1301 70.5718 16.1995 70.7454 16.1995 70.9537C16.2111 71.1505 16.1706 71.4109 16.078 71.7349L12.8143 81.1961C12.7912 81.2656 12.7391 81.3755 12.6581 81.526C12.5887 81.6648 12.4671 81.7921 12.2935 81.9079C12.1315 82.0236 11.8885 82.0815 11.5644 82.0815C11.2519 82.0815 11.0031 82.012 10.8179 81.8732C10.6328 81.7343 10.4997 81.5896 10.4187 81.4392C10.3492 81.2771 10.3029 81.1672 10.2798 81.1093L8.28338 74.634L6.28698 81.1093C6.27541 81.1672 6.22911 81.2771 6.1481 81.4392C6.06709 81.6012 5.93399 81.7516 5.74882 81.8905C5.57522 82.0178 5.32639 82.0815 5.00234 82.0815ZM18.7536 82.1162C18.337 82.1162 18.0361 82.0583 17.8509 81.9426C17.6657 81.8153 17.55 81.6475 17.5037 81.4392C17.469 81.2308 17.4516 81.0167 17.4516 80.7968V71.3009C17.4516 70.7917 17.55 70.4445 17.7467 70.2593C17.9435 70.0741 18.2965 69.9816 18.8057 69.9816H25.3678C25.5993 69.9816 25.8134 70.0047 26.0101 70.051C26.2069 70.0857 26.3689 70.1957 26.4962 70.3808C26.6235 70.566 26.6871 70.8785 26.6871 71.3183C26.6871 71.7349 26.6235 72.0358 26.4962 72.221C26.3689 72.4062 26.2011 72.5219 25.9927 72.5682C25.796 72.6029 25.5819 72.6203 25.3504 72.6203H20.0903V74.8597H23.6665C23.898 74.8597 24.1005 74.8771 24.2741 74.9118C24.4593 74.9465 24.6039 75.0449 24.7081 75.2069C24.8123 75.3689 24.8643 75.6409 24.8643 76.0228C24.8643 76.3816 24.8123 76.642 24.7081 76.804C24.6039 76.9661 24.4593 77.0644 24.2741 77.0992C24.0889 77.1339 23.8748 77.1512 23.6318 77.1512H20.0903V79.4775H25.3678C25.5993 79.4775 25.8134 79.5006 26.0101 79.5469C26.2069 79.5932 26.3689 79.7089 26.4962 79.8941C26.6235 80.0677 26.6871 80.3744 26.6871 80.8142C26.6871 81.2308 26.6235 81.5317 26.4962 81.7169C26.3689 81.9021 26.2011 82.012 25.9927 82.0468C25.796 82.0931 25.5819 82.1162 25.3504 82.1162H18.7536ZM29.4361 82.1162C29.0195 82.1162 28.7186 82.0583 28.5334 81.9426C28.3482 81.8153 28.2325 81.6475 28.1862 81.4392C28.1399 81.2308 28.1168 81.0167 28.1168 80.7968V71.3009C28.1168 71.0695 28.1341 70.8553 28.1689 70.6586C28.2151 70.4619 28.3309 70.2998 28.5161 70.1725C28.7012 70.0452 29.0079 69.9816 29.4361 69.9816C29.8759 69.9816 30.1826 70.0452 30.3562 70.1725C30.5414 70.2998 30.6513 70.4619 30.6861 70.6586C30.7323 70.8553 30.7555 71.0695 30.7555 71.3009V79.8247H35.5121C35.7089 79.8247 35.8941 79.842 36.0677 79.8768C36.2413 79.9115 36.3801 80.0099 36.4843 80.1719C36.6 80.3339 36.6579 80.6001 36.6579 80.9704C36.6579 81.3292 36.6 81.5954 36.4843 81.769C36.3686 81.931 36.2239 82.0294 36.0503 82.0641C35.8883 82.0988 35.7089 82.1162 35.5121 82.1162H29.4361ZM43.6441 82.2551C43.1348 82.2551 42.5967 82.1741 42.0296 82.012C41.4625 81.85 40.907 81.607 40.363 81.2829C39.8191 80.9589 39.3214 80.548 38.8701 80.0504C38.4303 79.5411 38.0773 78.9509 37.8111 78.2796C37.5565 77.5968 37.4292 76.8214 37.4292 75.9534C37.4292 75.1201 37.5565 74.3794 37.8111 73.7313C38.0773 73.0716 38.4303 72.4988 38.8701 72.0127C39.3099 71.5266 39.8017 71.1273 40.3457 70.8148C40.8896 70.4908 41.4509 70.2535 42.0296 70.1031C42.6083 69.9411 43.158 69.86 43.6788 69.86C44.269 69.86 44.784 69.9295 45.2238 70.0684C45.6636 70.2072 46.0224 70.3519 46.3001 70.5024C46.5779 70.6412 46.7515 70.7396 46.8209 70.7975C47.0293 70.9248 47.226 71.0695 47.4112 71.2315C47.5964 71.3935 47.6947 71.6076 47.7063 71.8738C47.7063 72.0127 47.6774 72.1516 47.6195 72.2904C47.5732 72.4177 47.498 72.5566 47.3938 72.7071C47.2087 72.9733 47.0293 73.17 46.8557 73.2973C46.6936 73.4131 46.5258 73.4709 46.3522 73.4709C46.2133 73.4709 46.0803 73.4362 45.9529 73.3668C45.8372 73.2973 45.6868 73.2047 45.5016 73.089C45.4206 73.0311 45.3048 72.9617 45.1544 72.8807C45.0039 72.7881 44.8014 72.7071 44.5468 72.6376C44.2922 72.5566 43.9681 72.5161 43.5746 72.5161C43.1696 72.5161 42.7587 72.5913 42.3421 72.7418C41.937 72.8807 41.5609 73.0948 41.2137 73.3841C40.8665 73.6735 40.5887 74.0438 40.3804 74.4952C40.1721 74.9349 40.0679 75.45 40.0679 76.0402C40.0679 76.6536 40.1721 77.1802 40.3804 77.62C40.6003 78.0597 40.8838 78.4243 41.231 78.7136C41.5782 79.003 41.9544 79.2229 42.3594 79.3733C42.7761 79.5122 43.1811 79.5816 43.5746 79.5816C43.9218 79.5816 44.2169 79.5469 44.46 79.4775C44.7146 79.408 44.9287 79.327 45.1023 79.2344C45.2875 79.1303 45.4437 79.0377 45.571 78.9567C45.6983 78.8757 45.8256 78.8004 45.9529 78.731C46.0918 78.6616 46.2307 78.6268 46.3696 78.6268C46.5316 78.6268 46.6936 78.6905 46.8557 78.8178C47.0293 78.9451 47.2029 79.1476 47.3765 79.4254C47.4806 79.5759 47.5616 79.7263 47.6195 79.8768C47.6774 80.0156 47.7005 80.1545 47.6889 80.2934C47.6889 80.5364 47.5964 80.739 47.4112 80.901C47.226 81.0515 47.0293 81.1903 46.8209 81.3176C46.7284 81.3639 46.549 81.4681 46.2828 81.6301C46.0166 81.7806 45.6636 81.9195 45.2238 82.0468C44.784 82.1856 44.2575 82.2551 43.6441 82.2551ZM54.5041 82.2898C53.6708 82.2898 52.8838 82.1336 52.1431 81.8211C51.414 81.497 50.7717 81.0572 50.2162 80.5017C49.6722 79.9346 49.2382 79.2807 48.9142 78.54C48.6017 77.7993 48.4455 77.0008 48.4455 76.1444C48.4455 75.2764 48.5959 74.4662 48.8968 73.714C49.2093 72.9501 49.6317 72.2789 50.1641 71.7002C50.7081 71.1215 51.3388 70.6702 52.0563 70.3461C52.7739 70.0221 53.5435 69.86 54.3652 69.86C55.1985 69.86 55.9797 70.0221 56.7088 70.3461C57.4495 70.6586 58.0918 71.0984 58.6358 71.6655C59.1797 72.2326 59.6079 72.8923 59.9204 73.6445C60.2445 74.3968 60.4065 75.2127 60.4065 76.0923C60.4065 76.9371 60.2503 77.7357 59.9378 78.488C59.6369 79.2287 59.2145 79.8883 58.6705 80.467C58.1266 81.0341 57.4958 81.4797 56.7783 81.8037C56.0723 82.1278 55.3142 82.2898 54.5041 82.2898ZM54.4173 79.6511C54.8802 79.6511 55.3142 79.5585 55.7193 79.3733C56.1244 79.1881 56.4774 78.9393 56.7783 78.6268C57.0907 78.3028 57.328 77.9267 57.49 77.4984C57.6636 77.0587 57.7504 76.5841 57.7504 76.0749C57.7504 75.5888 57.6636 75.1317 57.49 74.7035C57.3164 74.2637 57.0734 73.8818 56.7609 73.5577C56.46 73.2221 56.107 72.9617 55.7019 72.7765C55.3085 72.5913 54.8802 72.4988 54.4173 72.4988C53.9659 72.4988 53.5377 72.5913 53.1327 72.7765C52.7392 72.9617 52.3862 73.2221 52.0737 73.5577C51.7728 73.8818 51.5298 74.2637 51.3446 74.7035C51.171 75.1317 51.0842 75.5946 51.0842 76.0923C51.0842 76.5784 51.171 77.0413 51.3446 77.4811C51.5298 77.9093 51.7728 78.2854 52.0737 78.6095C52.3862 78.9335 52.7392 79.1881 53.1327 79.3733C53.5262 79.5585 53.9544 79.6511 54.4173 79.6511ZM62.7433 82.1162C62.3267 82.1162 62.0258 82.0525 61.8406 81.9252C61.667 81.7979 61.5571 81.6359 61.5108 81.4392C61.4645 81.2308 61.4413 81.0109 61.4413 80.7795V71.2836C61.4413 71.0637 61.4645 70.8611 61.5108 70.676C61.5571 70.4792 61.6728 70.3172 61.858 70.1899C62.0431 70.0626 62.3498 69.9989 62.778 69.9989C63.0674 69.9989 63.2873 70.0163 63.4377 70.051C63.5882 70.0857 63.6981 70.1378 63.7676 70.2072C63.837 70.2651 63.9122 70.3345 63.9932 70.4156L67.8992 75.693H67.6388L71.5622 70.4156C71.6548 70.2998 71.7474 70.213 71.84 70.1552C71.9326 70.0973 72.0483 70.0568 72.1872 70.0336C72.3376 70.0105 72.5459 69.9989 72.8121 69.9989C73.2288 69.9989 73.5297 70.0626 73.7148 70.1899C73.9 70.3172 74.0158 70.485 74.062 70.6933C74.1083 70.8901 74.1315 71.0984 74.1315 71.3183V80.8142C74.1315 81.0341 74.1083 81.2424 74.062 81.4392C74.0158 81.6359 73.9 81.7979 73.7148 81.9252C73.5297 82.0525 73.223 82.1162 72.7948 82.1162C72.3781 82.1162 72.0772 82.0525 71.892 81.9252C71.7069 81.7979 71.5911 81.6301 71.5448 81.4218C71.4985 81.2135 71.4754 80.9994 71.4754 80.7795V74.582L68.8888 78.2449C68.8425 78.3028 68.7788 78.3838 68.6978 78.488C68.6168 78.5805 68.5011 78.6616 68.3506 78.731C68.2117 78.8004 68.0208 78.8352 67.7777 78.8352C67.5231 78.8352 67.3206 78.8004 67.1701 78.731C67.0312 78.6616 66.9213 78.5805 66.8403 78.488C66.7593 78.3954 66.6898 78.3144 66.632 78.2449L64.0627 74.5993V80.8142C64.0627 81.0341 64.0395 81.2424 63.9932 81.4392C63.947 81.6359 63.8312 81.7979 63.646 81.9252C63.4724 82.0525 63.1715 82.1162 62.7433 82.1162ZM77.0385 82.1162C76.6218 82.1162 76.3209 82.0583 76.1357 81.9426C75.9506 81.8153 75.8348 81.6475 75.7885 81.4392C75.7538 81.2308 75.7365 81.0167 75.7365 80.7968V71.3009C75.7365 70.7917 75.8348 70.4445 76.0316 70.2593C76.2283 70.0741 76.5813 69.9816 77.0905 69.9816H83.6526C83.8841 69.9816 84.0982 70.0047 84.2949 70.051C84.4917 70.0857 84.6537 70.1957 84.781 70.3808C84.9083 70.566 84.972 70.8785 84.972 71.3183C84.972 71.7349 84.9083 72.0358 84.781 72.221C84.6537 72.4062 84.4859 72.5219 84.2776 72.5682C84.0808 72.6029 83.8667 72.6203 83.6353 72.6203H78.3752V74.8597H81.9513C82.1828 74.8597 82.3853 74.8771 82.5589 74.9118C82.7441 74.9465 82.8888 75.0449 82.9929 75.2069C83.0971 75.3689 83.1492 75.6409 83.1492 76.0228C83.1492 76.3816 83.0971 76.642 82.9929 76.804C82.8888 76.9661 82.7441 77.0644 82.5589 77.0992C82.3738 77.1339 82.1597 77.1512 81.9166 77.1512H78.3752V79.4775H83.6526C83.8841 79.4775 84.0982 79.5006 84.2949 79.5469C84.4917 79.5932 84.6537 79.7089 84.781 79.8941C84.9083 80.0677 84.972 80.3744 84.972 80.8142C84.972 81.2308 84.9083 81.5317 84.781 81.7169C84.6537 81.9021 84.4859 82.012 84.2776 82.0468C84.0808 82.0931 83.8667 82.1162 83.6353 82.1162H77.0385ZM91.7522 82.1162C91.3239 82.1162 91.0172 82.0525 90.8321 81.9252C90.6585 81.7979 90.5485 81.6301 90.5022 81.4218C90.4559 81.2135 90.4328 80.9994 90.4328 80.7795V71.3009C90.4328 71.081 90.4559 70.8727 90.5022 70.676C90.5485 70.4676 90.6643 70.2998 90.8494 70.1725C91.0346 70.0452 91.3413 69.9816 91.7695 69.9816H95.3283C95.8144 69.9816 96.3005 70.0684 96.7866 70.242C97.2842 70.4156 97.7414 70.6875 98.158 71.0579C98.5862 71.4167 98.9276 71.8622 99.1822 72.3946C99.4484 72.927 99.5815 73.5519 99.5815 74.2695C99.5815 74.9755 99.4484 75.5946 99.1822 76.127C98.9276 76.6594 98.5862 77.1049 98.158 77.4637C97.7414 77.8109 97.2842 78.0771 96.7866 78.2623C96.2889 78.4359 95.797 78.5227 95.311 78.5227H93.0889V80.7968C93.0889 81.0167 93.0657 81.2308 93.0194 81.4392C92.9731 81.6359 92.8574 81.7979 92.6722 81.9252C92.4871 82.0525 92.1804 82.1162 91.7522 82.1162ZM93.0889 75.884H95.3283C95.5829 75.884 95.8318 75.8319 96.0748 75.7277C96.3294 75.612 96.5377 75.4326 96.6998 75.1896C96.8734 74.9465 96.9602 74.634 96.9602 74.2521C96.9602 73.9281 96.8907 73.6445 96.7518 73.4015C96.613 73.1584 96.4162 72.9675 96.1616 72.8286C95.9186 72.6897 95.635 72.6203 95.311 72.6203H93.0889V75.884ZM102.18 82.1162C101.763 82.1162 101.462 82.0583 101.277 81.9426C101.092 81.8153 100.976 81.6475 100.93 81.4392C100.895 81.2308 100.878 81.0167 100.878 80.7968V71.3009C100.878 70.7917 100.976 70.4445 101.173 70.2593C101.37 70.0741 101.723 69.9816 102.232 69.9816H108.794C109.026 69.9816 109.24 70.0047 109.436 70.051C109.633 70.0857 109.795 70.1957 109.923 70.3808C110.05 70.566 110.113 70.8785 110.113 71.3183C110.113 71.7349 110.05 72.0358 109.923 72.221C109.795 72.4062 109.627 72.5219 109.419 72.5682C109.222 72.6029 109.008 72.6203 108.777 72.6203H103.517V74.8597H107.093C107.324 74.8597 107.527 74.8771 107.7 74.9118C107.886 74.9465 108.03 75.0449 108.134 75.2069C108.239 75.3689 108.291 75.6409 108.291 76.0228C108.291 76.3816 108.239 76.642 108.134 76.804C108.03 76.9661 107.886 77.0644 107.7 77.0992C107.515 77.1339 107.301 77.1512 107.058 77.1512H103.517V79.4775H108.794C109.026 79.4775 109.24 79.5006 109.436 79.5469C109.633 79.5932 109.795 79.7089 109.923 79.8941C110.05 80.0677 110.113 80.3744 110.113 80.8142C110.113 81.2308 110.05 81.5317 109.923 81.7169C109.795 81.9021 109.627 82.012 109.419 82.0468C109.222 82.0931 109.008 82.1162 108.777 82.1162H102.18ZM120.345 69.9642C120.541 69.9642 120.721 69.9816 120.883 70.0163C121.045 70.051 121.178 70.1494 121.282 70.3114C121.398 70.4619 121.456 70.728 121.456 71.11C121.456 71.4687 121.398 71.7291 121.282 71.8912C121.178 72.0532 121.039 72.1516 120.865 72.1863C120.692 72.221 120.507 72.2384 120.31 72.2384H117.515V80.8316C117.515 81.0515 117.492 81.2598 117.445 81.4565C117.411 81.6533 117.301 81.8153 117.116 81.9426C116.942 82.0583 116.641 82.1162 116.213 82.1162C115.796 82.1162 115.495 82.0583 115.31 81.9426C115.125 81.8153 115.015 81.6533 114.98 81.4565C114.946 81.2482 114.928 81.0341 114.928 80.8142V72.2384H112.099C111.913 72.2384 111.734 72.221 111.56 72.1863C111.387 72.14 111.248 72.0416 111.144 71.8912C111.04 71.7291 110.988 71.4629 110.988 71.0926C110.988 70.7223 111.04 70.4619 111.144 70.3114C111.248 70.1494 111.387 70.051 111.56 70.0163C111.734 69.9816 111.913 69.9642 112.099 69.9642H120.345ZM126.211 82.2898C125.597 82.2898 125.059 82.2146 124.596 82.0641C124.145 81.9137 123.757 81.7343 123.433 81.526C123.121 81.3061 122.872 81.092 122.687 80.8836C122.501 80.6753 122.374 80.5191 122.305 80.4149C122.108 80.1603 121.986 79.9404 121.94 79.7552C121.894 79.5585 121.917 79.3617 122.01 79.165C122.114 78.9683 122.287 78.7541 122.53 78.5227C122.773 78.3144 122.999 78.2044 123.207 78.1928C123.427 78.1697 123.641 78.2218 123.85 78.3491C124.058 78.4764 124.261 78.6558 124.457 78.8872C124.735 79.2229 125.007 79.4601 125.273 79.599C125.551 79.7263 125.84 79.79 126.141 79.79C126.523 79.79 126.847 79.7437 127.113 79.6511C127.38 79.5585 127.582 79.4138 127.721 79.2171C127.86 79.0088 127.929 78.7484 127.929 78.4359C127.929 78.1813 127.831 77.9787 127.634 77.8283C127.449 77.6663 127.194 77.5274 126.87 77.4116C126.558 77.2959 126.205 77.186 125.811 77.0818C125.429 76.9661 125.048 76.833 124.666 76.6825C124.399 76.5899 124.145 76.4742 123.902 76.3353C123.659 76.1964 123.427 76.0402 123.207 75.8666C122.987 75.693 122.797 75.4847 122.635 75.2416C122.484 74.9986 122.363 74.7208 122.27 74.4084C122.189 74.0959 122.148 73.7371 122.148 73.332C122.148 72.6492 122.316 72.0416 122.652 71.5092C122.987 70.9769 123.45 70.5602 124.041 70.2593C124.642 69.9468 125.331 69.7906 126.107 69.7906C126.627 69.7906 127.079 69.8369 127.461 69.9295C127.854 70.0221 128.184 70.132 128.45 70.2593C128.716 70.3866 128.925 70.5139 129.075 70.6412C129.237 70.757 129.347 70.8496 129.405 70.919C129.729 71.2199 129.908 71.4803 129.943 71.7002C129.978 71.9085 129.856 72.2036 129.579 72.5856C129.289 72.9906 129 73.2163 128.711 73.2626C128.433 73.3089 128.114 73.2105 127.756 72.9675C127.617 72.8402 127.478 72.7244 127.339 72.6203C127.2 72.5161 127.032 72.4351 126.836 72.3772C126.65 72.3078 126.402 72.2731 126.089 72.2731C125.904 72.2731 125.73 72.302 125.568 72.3599C125.406 72.4062 125.267 72.4756 125.152 72.5682C125.036 72.6608 124.943 72.7765 124.874 72.9154C124.805 73.0427 124.77 73.1874 124.77 73.3494C124.77 73.6156 124.857 73.8297 125.03 73.9917C125.215 74.1537 125.453 74.2868 125.742 74.391C126.043 74.4836 126.373 74.5762 126.731 74.6688C127.102 74.7498 127.478 74.8481 127.86 74.9639C128.207 75.0796 128.543 75.2243 128.867 75.3979C129.191 75.5599 129.48 75.7682 129.735 76.0228C129.989 76.2775 130.192 76.5957 130.342 76.9776C130.504 77.3596 130.585 77.8283 130.585 78.3838C130.585 79.0782 130.452 79.6742 130.186 80.1719C129.92 80.6695 129.567 81.0746 129.127 81.3871C128.687 81.6996 128.213 81.9252 127.704 82.0641C127.194 82.2146 126.697 82.2898 126.211 82.2898Z" fill="#E74B4C"/>
<path d="M28.6397 96.7161C28.6875 96.8057 28.7114 96.8834 28.7114 96.9491C28.7174 97.0088 28.6994 97.0656 28.6576 97.1193C28.6158 97.1671 28.5501 97.2119 28.4605 97.2537C28.3171 97.3194 28.2036 97.3344 28.12 97.2985C28.0424 97.2627 27.9707 97.1761 27.905 97.0387L25.665 92.272L23.4429 97.0297C23.3772 97.1671 23.3025 97.2537 23.2189 97.2896C23.1412 97.3254 23.0278 97.3105 22.8784 97.2448C22.7888 97.2089 22.7231 97.1641 22.6813 97.1104C22.6455 97.0566 22.6305 96.9909 22.6365 96.9132C22.6484 96.8356 22.6783 96.746 22.7261 96.6444L25.2976 91.2774C25.3335 91.2057 25.3842 91.149 25.4499 91.1072C25.5216 91.0594 25.5963 91.0355 25.6739 91.0355C25.7277 91.0355 25.7785 91.0444 25.8263 91.0624C25.874 91.0803 25.9159 91.1072 25.9517 91.143C25.9875 91.1788 26.0174 91.2266 26.0413 91.2864L28.6397 96.7161ZM23.9805 95.5065L24.2851 94.8166H27.0627L27.3584 95.5065H23.9805ZM30.9071 97.2896C30.6383 97.2896 30.3815 97.2358 30.1366 97.1283C29.8917 97.0208 29.6766 96.8684 29.4915 96.6713C29.3123 96.4742 29.1689 96.2442 29.0614 95.9814C28.9598 95.7126 28.9091 95.4199 28.9091 95.1033C28.9091 94.7927 28.9598 94.506 29.0614 94.2432C29.1689 93.9803 29.3123 93.7533 29.4915 93.5622C29.6766 93.3651 29.8917 93.2128 30.1366 93.1052C30.3815 92.9977 30.6383 92.944 30.9071 92.944C31.1998 92.944 31.4627 92.9977 31.6956 93.1052C31.9346 93.2128 32.1376 93.3651 32.3049 93.5622C32.4781 93.7533 32.6095 93.9833 32.6991 94.2521C32.7887 94.5149 32.8335 94.8017 32.8335 95.1123C32.8395 95.4289 32.7947 95.7186 32.6991 95.9814C32.6095 96.2442 32.4811 96.4742 32.3139 96.6713C32.1466 96.8684 31.9435 97.0208 31.7046 97.1283C31.4716 97.2358 31.2058 97.2896 30.9071 97.2896ZM31.0236 96.528C31.2745 96.528 31.4985 96.4682 31.6956 96.3488C31.8987 96.2293 32.057 96.065 32.1705 95.856C32.29 95.6409 32.3497 95.396 32.3497 95.1212C32.3497 94.8405 32.29 94.5956 32.1705 94.3865C32.057 94.1715 31.8987 94.0042 31.6956 93.8848C31.4985 93.7653 31.2745 93.7056 31.0236 93.7056C30.7727 93.7056 30.5458 93.7653 30.3427 93.8848C30.1396 94.0042 29.9783 94.1715 29.8588 94.3865C29.7453 94.5956 29.6886 94.8405 29.6886 95.1212C29.6886 95.396 29.7453 95.6409 29.8588 95.856C29.9783 96.065 30.1396 96.2293 30.3427 96.3488C30.5517 96.4682 30.7787 96.528 31.0236 96.528ZM32.7798 97.2896C32.6484 97.2896 32.5528 97.2657 32.4931 97.2179C32.4333 97.1701 32.3975 97.0894 32.3855 96.976V91.367C32.3855 91.2774 32.3915 91.2027 32.4035 91.143C32.4214 91.0833 32.4572 91.0385 32.511 91.0086C32.5707 90.9728 32.6573 90.9548 32.7708 90.9548C32.8843 90.9548 32.9679 90.9728 33.0217 91.0086C33.0814 91.0385 33.1203 91.0833 33.1382 91.143C33.1561 91.2027 33.1651 91.2744 33.1651 91.358V96.8774C33.1651 96.961 33.1561 97.0357 33.1382 97.1014C33.1203 97.1611 33.0844 97.2059 33.0307 97.2358C32.9769 97.2716 32.8933 97.2896 32.7798 97.2896ZM36.1855 97.3433C35.8928 97.3433 35.612 97.2866 35.3432 97.1731C35.0804 97.0596 34.8445 96.9043 34.6354 96.7072C34.4263 96.5041 34.2621 96.2681 34.1426 95.9993C34.0231 95.7305 33.9634 95.4378 33.9634 95.1212C33.9634 94.8106 34.0202 94.5239 34.1336 94.2611C34.2471 93.9923 34.4054 93.7563 34.6085 93.5532C34.8116 93.3501 35.0446 93.1918 35.3074 93.0784C35.5762 92.9589 35.8629 92.8992 36.1676 92.8992C36.5797 92.8992 36.9501 92.9977 37.2786 93.1948C37.6131 93.386 37.8789 93.6488 38.076 93.9833C38.2732 94.3178 38.3717 94.6941 38.3717 95.1123C38.3717 95.4408 38.312 95.7425 38.1925 96.0172C38.0731 96.286 37.9118 96.519 37.7087 96.7161C37.5056 96.9132 37.2726 97.0685 37.0098 97.182C36.747 97.2896 36.4722 97.3433 36.1855 97.3433ZM36.1676 96.5638C36.4184 96.5638 36.6514 96.5011 36.8664 96.3756C37.0815 96.2502 37.2547 96.077 37.3861 95.856C37.5175 95.6349 37.5832 95.3841 37.5832 95.1033C37.5832 94.8226 37.5205 94.5747 37.3951 94.3596C37.2756 94.1446 37.1084 93.9773 36.8933 93.8579C36.6783 93.7384 36.4334 93.6787 36.1586 93.6787C35.8958 93.6787 35.6568 93.7414 35.4418 93.8668C35.2327 93.9923 35.0625 94.1625 34.9311 94.3776C34.8056 94.5926 34.7429 94.8375 34.7429 95.1123C34.7429 95.399 34.8086 95.6529 34.94 95.8739C35.0715 96.0889 35.2447 96.2592 35.4597 96.3846C35.6807 96.5041 35.9167 96.5638 36.1676 96.5638ZM41.4322 97.2537C41.1395 97.2537 40.8737 97.2 40.6348 97.0924C40.3958 96.9849 40.1927 96.8356 40.0255 96.6444C39.8582 96.4473 39.7268 96.2173 39.6312 95.9545C39.5416 95.6917 39.4998 95.402 39.5058 95.0854C39.5058 94.7748 39.5506 94.4881 39.6402 94.2252C39.7298 93.9624 39.8582 93.7354 40.0255 93.5443C40.1987 93.3472 40.4018 93.1978 40.6348 93.0963C40.8737 92.9888 41.1395 92.935 41.4322 92.935C41.707 92.935 41.9638 92.9888 42.2028 93.0963C42.4477 93.2038 42.6597 93.3561 42.8389 93.5532C43.0241 93.7444 43.1675 93.9744 43.269 94.2432C43.3765 94.512 43.4303 94.8017 43.4303 95.1123C43.4303 95.4229 43.3765 95.7096 43.269 95.9724C43.1675 96.2353 43.0241 96.4622 42.8389 96.6534C42.6597 96.8445 42.4477 96.9939 42.2028 97.1014C41.9638 97.2029 41.707 97.2537 41.4322 97.2537ZM39.5685 99.0547C39.455 99.0547 39.3684 99.0368 39.3087 99.0009C39.2549 98.971 39.2161 98.9262 39.1922 98.8665C39.1743 98.8068 39.1653 98.7351 39.1653 98.6515V93.3561C39.1653 93.2725 39.1743 93.2008 39.1922 93.1411C39.2101 93.0813 39.246 93.0365 39.2997 93.0067C39.3595 92.9708 39.4461 92.9529 39.5596 92.9529C39.691 92.9529 39.7865 92.9738 39.8463 93.0156C39.912 93.0574 39.9508 93.1321 39.9628 93.2396V98.6425C39.9687 98.7261 39.9628 98.7978 39.9448 98.8576C39.9269 98.9233 39.8881 98.971 39.8284 99.0009C39.7746 99.0368 39.688 99.0547 39.5685 99.0547ZM41.3157 96.519C41.5666 96.519 41.7936 96.4593 41.9967 96.3398C42.1998 96.2144 42.3581 96.0441 42.4716 95.8291C42.591 95.614 42.6508 95.3691 42.6508 95.0944C42.6508 94.8136 42.591 94.5687 42.4716 94.3596C42.3581 94.1506 42.1998 93.9893 41.9967 93.8758C41.7996 93.7563 41.5726 93.6966 41.3157 93.6966C41.0648 93.6966 40.8379 93.7563 40.6348 93.8758C40.4376 93.9953 40.2793 94.1595 40.1599 94.3686C40.0464 94.5777 39.9896 94.8196 39.9896 95.0944C39.9896 95.3691 40.0464 95.614 40.1599 95.8291C40.2793 96.0441 40.4376 96.2144 40.6348 96.3398C40.8379 96.4593 41.0648 96.519 41.3157 96.519ZM46.3374 97.2896C46.0566 97.2896 45.8177 97.2627 45.6206 97.2089C45.4294 97.1552 45.2711 97.0715 45.1457 96.958C45.0203 96.8445 44.9307 96.6982 44.8769 96.519C44.8231 96.3338 44.7963 96.1068 44.7963 95.838V91.8777C44.7963 91.7941 44.8052 91.7224 44.8231 91.6627C44.8411 91.6029 44.8769 91.5581 44.9307 91.5283C44.9844 91.4924 45.068 91.4745 45.1815 91.4745C45.295 91.4745 45.3816 91.4924 45.4414 91.5283C45.5011 91.5581 45.5399 91.6029 45.5579 91.6627C45.5758 91.7164 45.5847 91.7851 45.5847 91.8688V95.838C45.5847 95.9933 45.5967 96.1188 45.6206 96.2144C45.6504 96.304 45.6923 96.3726 45.746 96.4204C45.8058 96.4682 45.8834 96.4981 45.979 96.51C46.0746 96.522 46.191 96.528 46.3284 96.528C46.424 96.528 46.5016 96.5369 46.5614 96.5548C46.6211 96.5728 46.6659 96.6086 46.6958 96.6624C46.7256 96.7161 46.7406 96.7968 46.7406 96.9043C46.7406 97.0178 46.7227 97.1044 46.6868 97.1641C46.657 97.2179 46.6092 97.2507 46.5435 97.2627C46.4837 97.2806 46.415 97.2896 46.3374 97.2896ZM44.3303 93.0515L45.1905 93.0604L46.4359 93.0425C46.5196 93.0425 46.5912 93.0515 46.651 93.0694C46.7107 93.0813 46.7555 93.1172 46.7854 93.1769C46.8212 93.2307 46.8391 93.3143 46.8391 93.4278C46.8391 93.5413 46.8242 93.6279 46.7943 93.6876C46.7645 93.7414 46.7197 93.7772 46.6599 93.7952C46.6002 93.8131 46.5285 93.822 46.4449 93.822L45.2174 93.8041L44.3124 93.8131C44.187 93.8131 44.1004 93.7832 44.0526 93.7235C44.0108 93.6637 43.9899 93.5652 43.9899 93.4278C43.9899 93.2964 44.0167 93.2008 44.0705 93.1411C44.1243 93.0813 44.2109 93.0515 44.3303 93.0515ZM50.3235 97.2985C50.1443 97.2985 50.0189 97.2627 49.9472 97.191C49.8755 97.1193 49.8397 96.9998 49.8397 96.8326C49.8397 96.7072 49.8546 96.6116 49.8845 96.5459C49.9144 96.4742 49.9651 96.4234 50.0368 96.3936C50.1085 96.3577 50.2041 96.3398 50.3235 96.3398C50.5027 96.3398 50.6252 96.3756 50.6909 96.4473C50.7626 96.519 50.7984 96.6444 50.7984 96.8236C50.7984 96.9431 50.7835 97.0387 50.7536 97.1104C50.7237 97.1761 50.673 97.2238 50.6013 97.2537C50.5356 97.2836 50.443 97.2985 50.3235 97.2985ZM54.5423 97.2896C54.4228 97.2896 54.3332 97.2716 54.2735 97.2358C54.2138 97.2059 54.1719 97.1611 54.148 97.1014C54.1301 97.0417 54.1212 96.97 54.1212 96.8864V91.4476C54.1212 91.358 54.1301 91.2834 54.148 91.2236C54.166 91.1639 54.2018 91.1191 54.2556 91.0892C54.3153 91.0534 54.4049 91.0355 54.5244 91.0355C54.6438 91.0355 54.7304 91.0534 54.7842 91.0892C54.8439 91.1191 54.8828 91.1639 54.9007 91.2236C54.9186 91.2834 54.9276 91.355 54.9276 91.4387V96.5369H57.9292C58.0068 96.5369 58.0725 96.5459 58.1263 96.5638C58.18 96.5817 58.2219 96.6176 58.2517 96.6713C58.2876 96.7251 58.3055 96.8057 58.3055 96.9132C58.3055 97.0148 58.2906 97.0954 58.2607 97.1552C58.2308 97.2089 58.189 97.2448 58.1352 97.2627C58.0815 97.2806 58.0158 97.2896 57.9381 97.2896H54.5423ZM61.0617 97.3433C60.769 97.3433 60.4883 97.2866 60.2195 97.1731C59.9567 97.0596 59.7207 96.9043 59.5117 96.7072C59.3026 96.5041 59.1383 96.2681 59.0189 95.9993C58.8994 95.7305 58.8397 95.4378 58.8397 95.1212C58.8397 94.8106 58.8964 94.5239 59.0099 94.2611C59.1234 93.9923 59.2817 93.7563 59.4848 93.5532C59.6879 93.3501 59.9208 93.1918 60.1837 93.0784C60.4525 92.9589 60.7392 92.8992 61.0438 92.8992C61.456 92.8992 61.8263 92.9977 62.1549 93.1948C62.4894 93.386 62.7552 93.6488 62.9523 93.9833C63.1494 94.3178 63.248 94.6941 63.248 95.1123C63.248 95.4408 63.1882 95.7425 63.0688 96.0172C62.9493 96.286 62.788 96.519 62.5849 96.7161C62.3818 96.9132 62.1489 97.0685 61.8861 97.182C61.6232 97.2896 61.3485 97.3433 61.0617 97.3433ZM61.0438 96.5638C61.2947 96.5638 61.5277 96.5011 61.7427 96.3756C61.9577 96.2502 62.131 96.077 62.2624 95.856C62.3938 95.6349 62.4595 95.3841 62.4595 95.1033C62.4595 94.8226 62.3968 94.5747 62.2713 94.3596C62.1519 94.1446 61.9846 93.9773 61.7696 93.8579C61.5545 93.7384 61.3096 93.6787 61.0349 93.6787C60.772 93.6787 60.5331 93.7414 60.3181 93.8668C60.109 93.9923 59.9388 94.1625 59.8073 94.3776C59.6819 94.5926 59.6192 94.8375 59.6192 95.1123C59.6192 95.399 59.6849 95.6529 59.8163 95.8739C59.9477 96.0889 60.1209 96.2592 60.336 96.3846C60.557 96.5041 60.7929 96.5638 61.0438 96.5638ZM65.6788 97.3075C65.5773 97.3075 65.4936 97.2925 65.4279 97.2627C65.3682 97.2328 65.3174 97.179 65.2756 97.1014L63.618 93.4905C63.5523 93.3472 63.5374 93.2396 63.5732 93.168C63.609 93.0903 63.6927 93.0186 63.8241 92.9529C63.9435 92.8932 64.0451 92.8753 64.1287 92.8992C64.2123 92.9171 64.284 92.9947 64.3438 93.1321L65.6788 96.3129L66.987 93.2217C67.0527 93.0843 67.1243 92.9858 67.202 92.926C67.2797 92.8663 67.4021 92.8782 67.5694 92.9619C67.7306 93.0395 67.8113 93.1291 67.8113 93.2307C67.8113 93.3262 67.7844 93.4308 67.7306 93.5443L66.082 97.0924C66.0521 97.1641 66.0043 97.2179 65.9386 97.2537C65.8729 97.2896 65.7863 97.3075 65.6788 97.3075ZM70.4261 97.3344C70.0677 97.3344 69.7482 97.2746 69.4674 97.1552C69.1867 97.0357 68.9477 96.8744 68.7506 96.6713C68.5595 96.4622 68.4131 96.2233 68.3116 95.9545C68.21 95.6857 68.1593 95.396 68.1593 95.0854C68.1593 94.6732 68.2548 94.3059 68.446 93.9833C68.6371 93.6608 68.8999 93.4069 69.2345 93.2217C69.5749 93.0306 69.9632 92.935 70.3993 92.935C70.6979 92.935 70.9637 92.9828 71.1967 93.0784C71.4356 93.168 71.6387 93.2904 71.806 93.4457C71.9732 93.601 72.1017 93.7742 72.1913 93.9654C72.2809 94.1565 72.3257 94.3477 72.3257 94.5388C72.3257 94.8435 72.254 95.0585 72.1106 95.184C71.9673 95.3034 71.791 95.3632 71.582 95.3632H68.9925C68.9866 95.626 69.0553 95.853 69.1986 96.0441C69.3479 96.2293 69.5331 96.3726 69.7541 96.4742C69.9811 96.5757 70.2081 96.6265 70.4351 96.6265C70.6023 96.6265 70.7457 96.6176 70.8652 96.5996C70.9846 96.5817 71.0892 96.5578 71.1788 96.528C71.2684 96.4981 71.346 96.4682 71.4117 96.4384C71.4774 96.4085 71.5342 96.3786 71.582 96.3488C71.6357 96.3189 71.6865 96.298 71.7343 96.286C71.7881 96.2741 71.8388 96.2801 71.8866 96.304C71.9404 96.3219 71.9822 96.3607 72.0121 96.4204C72.0479 96.4682 72.0718 96.513 72.0837 96.5548C72.0957 96.5966 72.1017 96.6414 72.1017 96.6892C72.1017 96.7729 72.03 96.8654 71.8866 96.967C71.7433 97.0685 71.5431 97.1552 71.2863 97.2268C71.0354 97.2985 70.7487 97.3344 70.4261 97.3344ZM68.9925 94.8345H71.2415C71.355 94.8345 71.4386 94.8196 71.4924 94.7897C71.5521 94.7598 71.582 94.6792 71.582 94.5478C71.582 94.3805 71.5312 94.2312 71.4297 94.0998C71.3281 93.9624 71.1877 93.8519 71.0085 93.7683C70.8353 93.6846 70.6352 93.6428 70.4082 93.6428C70.1454 93.6428 69.9035 93.6966 69.6825 93.8041C69.4674 93.9057 69.2972 94.046 69.1717 94.2252C69.0463 94.4044 68.9866 94.6075 68.9925 94.8345ZM75.8823 97.2985C75.7031 97.2985 75.5776 97.2627 75.506 97.191C75.4343 97.1193 75.3984 96.9998 75.3984 96.8326C75.3984 96.7072 75.4134 96.6116 75.4432 96.5459C75.4731 96.4742 75.5239 96.4234 75.5956 96.3936C75.6672 96.3577 75.7628 96.3398 75.8823 96.3398C76.0615 96.3398 76.1839 96.3756 76.2496 96.4473C76.3213 96.519 76.3572 96.6444 76.3572 96.8236C76.3572 96.9431 76.3422 97.0387 76.3124 97.1104C76.2825 97.1761 76.2317 97.2238 76.16 97.2537C76.0943 97.2836 76.0017 97.2985 75.8823 97.2985ZM80.1727 97.2896C80.0592 97.2896 79.9726 97.2716 79.9129 97.2358C79.8531 97.2059 79.8143 97.1611 79.7964 97.1014C79.7845 97.0357 79.7785 96.961 79.7785 96.8774V91.4297C79.7785 91.3521 79.7874 91.2864 79.8054 91.2326C79.8293 91.1729 79.8681 91.1251 79.9218 91.0892C79.9816 91.0534 80.0682 91.0355 80.1817 91.0355H82.1618C82.4545 91.0355 82.7203 91.0803 82.9593 91.1699C83.2042 91.2535 83.4162 91.3789 83.5954 91.5462C83.7746 91.7134 83.912 91.9255 84.0076 92.1824C84.1091 92.4332 84.1599 92.7259 84.1599 93.0604C84.1599 93.2695 84.1271 93.4875 84.0614 93.7145C83.9957 93.9355 83.8941 94.1446 83.7567 94.3417C83.6253 94.5388 83.4551 94.7031 83.246 94.8345C83.0369 94.9659 82.7831 95.0406 82.4844 95.0585H80.5849V96.8864C80.5849 96.97 80.5729 97.0417 80.549 97.1014C80.5311 97.1611 80.4923 97.2059 80.4326 97.2358C80.3788 97.2716 80.2922 97.2896 80.1727 97.2896ZM84.0166 97.191C83.8911 97.2746 83.7836 97.3015 83.694 97.2716C83.6104 97.2418 83.5297 97.1701 83.4521 97.0566L82.0185 94.7628L82.9055 94.6284L84.142 96.5996C84.2017 96.6952 84.2376 96.7758 84.2495 96.8416C84.2674 96.9073 84.2555 96.967 84.2137 97.0208C84.1778 97.0745 84.1121 97.1313 84.0166 97.191ZM80.5849 94.27H82.359C82.4963 94.27 82.6248 94.2461 82.7442 94.1984C82.8637 94.1446 82.9682 94.0669 83.0578 93.9654C83.1474 93.8638 83.2191 93.7384 83.2729 93.5891C83.3266 93.4397 83.3535 93.2605 83.3535 93.0515C83.3535 92.7946 83.3057 92.5766 83.2102 92.3974C83.1206 92.2182 82.9862 92.0838 82.807 91.9942C82.6278 91.8986 82.4067 91.8508 82.1439 91.8508H80.5849V94.27ZM87.1211 97.3344C86.7627 97.3344 86.4432 97.2746 86.1624 97.1552C85.8817 97.0357 85.6427 96.8744 85.4456 96.6713C85.2545 96.4622 85.1081 96.2233 85.0066 95.9545C84.905 95.6857 84.8543 95.396 84.8543 95.0854C84.8543 94.6732 84.9498 94.3059 85.141 93.9833C85.3321 93.6608 85.5949 93.4069 85.9295 93.2217C86.2699 93.0306 86.6582 92.935 87.0943 92.935C87.3929 92.935 87.6587 92.9828 87.8917 93.0784C88.1306 93.168 88.3337 93.2904 88.501 93.4457C88.6682 93.601 88.7967 93.7742 88.8863 93.9654C88.9759 94.1565 89.0207 94.3477 89.0207 94.5388C89.0207 94.8435 88.949 95.0585 88.8056 95.184C88.6623 95.3034 88.486 95.3632 88.277 95.3632H85.6875C85.6816 95.626 85.7503 95.853 85.8936 96.0441C86.0429 96.2293 86.2281 96.3726 86.4491 96.4742C86.6761 96.5757 86.9031 96.6265 87.1301 96.6265C87.2973 96.6265 87.4407 96.6176 87.5602 96.5996C87.6796 96.5817 87.7842 96.5578 87.8738 96.528C87.9634 96.4981 88.041 96.4682 88.1067 96.4384C88.1724 96.4085 88.2292 96.3786 88.277 96.3488C88.3307 96.3189 88.3815 96.298 88.4293 96.286C88.4831 96.2741 88.5338 96.2801 88.5816 96.304C88.6354 96.3219 88.6772 96.3607 88.7071 96.4204C88.7429 96.4682 88.7668 96.513 88.7787 96.5548C88.7907 96.5966 88.7967 96.6414 88.7967 96.6892C88.7967 96.7729 88.725 96.8654 88.5816 96.967C88.4383 97.0685 88.2381 97.1552 87.9813 97.2268C87.7304 97.2985 87.4437 97.3344 87.1211 97.3344ZM85.6875 94.8345H87.9365C88.05 94.8345 88.1336 94.8196 88.1874 94.7897C88.2471 94.7598 88.277 94.6792 88.277 94.5478C88.277 94.3805 88.2262 94.2312 88.1247 94.0998C88.0231 93.9624 87.8827 93.8519 87.7035 93.7683C87.5303 93.6846 87.3302 93.6428 87.1032 93.6428C86.8404 93.6428 86.5985 93.6966 86.3775 93.8041C86.1624 93.9057 85.9922 94.046 85.8667 94.2252C85.7413 94.4044 85.6816 94.6075 85.6875 94.8345ZM92.1122 97.2537C91.8195 97.2537 91.5537 97.2 91.3148 97.0924C91.0758 96.9849 90.8727 96.8356 90.7055 96.6444C90.5382 96.4473 90.4068 96.2173 90.3112 95.9545C90.2216 95.6917 90.1798 95.402 90.1858 95.0854C90.1858 94.7748 90.2306 94.4881 90.3202 94.2252C90.4098 93.9624 90.5382 93.7354 90.7055 93.5443C90.8787 93.3472 91.0818 93.1978 91.3148 93.0963C91.5537 92.9888 91.8195 92.935 92.1122 92.935C92.387 92.935 92.6438 92.9888 92.8828 93.0963C93.1277 93.2038 93.3397 93.3561 93.5189 93.5532C93.7041 93.7444 93.8474 93.9744 93.949 94.2432C94.0565 94.512 94.1103 94.8017 94.1103 95.1123C94.1103 95.4229 94.0565 95.7096 93.949 95.9724C93.8474 96.2353 93.7041 96.4622 93.5189 96.6534C93.3397 96.8445 93.1277 96.9939 92.8828 97.1014C92.6438 97.2029 92.387 97.2537 92.1122 97.2537ZM90.2485 99.0547C90.135 99.0547 90.0484 99.0368 89.9887 99.0009C89.9349 98.971 89.8961 98.9262 89.8722 98.8665C89.8543 98.8068 89.8453 98.7351 89.8453 98.6515V93.3561C89.8453 93.2725 89.8543 93.2008 89.8722 93.1411C89.8901 93.0813 89.926 93.0365 89.9797 93.0067C90.0394 92.9708 90.1261 92.9529 90.2396 92.9529C90.371 92.9529 90.4665 92.9738 90.5263 93.0156C90.592 93.0574 90.6308 93.1321 90.6428 93.2396V98.6425C90.6487 98.7261 90.6428 98.7978 90.6248 98.8576C90.6069 98.9233 90.5681 98.971 90.5084 99.0009C90.4546 99.0368 90.368 99.0547 90.2485 99.0547ZM91.9957 96.519C92.2466 96.519 92.4736 96.4593 92.6767 96.3398C92.8798 96.2144 93.0381 96.0441 93.1516 95.8291C93.271 95.614 93.3308 95.3691 93.3308 95.0944C93.3308 94.8136 93.271 94.5687 93.1516 94.3596C93.0381 94.1506 92.8798 93.9893 92.6767 93.8758C92.4796 93.7563 92.2526 93.6966 91.9957 93.6966C91.7448 93.6966 91.5178 93.7563 91.3148 93.8758C91.1176 93.9953 90.9593 94.1595 90.8399 94.3686C90.7264 94.5777 90.6696 94.8196 90.6696 95.0944C90.6696 95.3691 90.7264 95.614 90.8399 95.8291C90.9593 96.0441 91.1176 96.2144 91.3148 96.3398C91.5178 96.4593 91.7448 96.519 91.9957 96.519ZM97.1049 97.3344C96.7465 97.3344 96.4269 97.2746 96.1462 97.1552C95.8654 97.0357 95.6265 96.8744 95.4294 96.6713C95.2382 96.4622 95.0919 96.2233 94.9903 95.9545C94.8888 95.6857 94.838 95.396 94.838 95.0854C94.838 94.6732 94.9336 94.3059 95.1247 93.9833C95.3159 93.6608 95.5787 93.4069 95.9132 93.2217C96.2537 93.0306 96.6419 92.935 97.078 92.935C97.3767 92.935 97.6425 92.9828 97.8754 93.0784C98.1144 93.168 98.3175 93.2904 98.4847 93.4457C98.652 93.601 98.7804 93.7742 98.87 93.9654C98.9596 94.1565 99.0044 94.3477 99.0044 94.5388C99.0044 94.8435 98.9327 95.0585 98.7894 95.184C98.646 95.3034 98.4698 95.3632 98.2607 95.3632H95.6713C95.6653 95.626 95.734 95.853 95.8774 96.0441C96.0267 96.2293 96.2119 96.3726 96.4329 96.4742C96.6599 96.5757 96.8869 96.6265 97.1138 96.6265C97.2811 96.6265 97.4245 96.6176 97.5439 96.5996C97.6634 96.5817 97.7679 96.5578 97.8575 96.528C97.9471 96.4981 98.0248 96.4682 98.0905 96.4384C98.1562 96.4085 98.2129 96.3786 98.2607 96.3488C98.3145 96.3189 98.3653 96.298 98.413 96.286C98.4668 96.2741 98.5176 96.2801 98.5654 96.304C98.6191 96.3219 98.6609 96.3607 98.6908 96.4204C98.7266 96.4682 98.7505 96.513 98.7625 96.5548C98.7744 96.5966 98.7804 96.6414 98.7804 96.6892C98.7804 96.7729 98.7087 96.8654 98.5654 96.967C98.422 97.0685 98.2219 97.1552 97.965 97.2268C97.7142 97.2985 97.4274 97.3344 97.1049 97.3344ZM95.6713 94.8345H97.9202C98.0337 94.8345 98.1174 94.8196 98.1711 94.7897C98.2309 94.7598 98.2607 94.6792 98.2607 94.5478C98.2607 94.3805 98.2099 94.2312 98.1084 94.0998C98.0069 93.9624 97.8665 93.8519 97.6873 93.7683C97.5141 93.6846 97.3139 93.6428 97.087 93.6428C96.8241 93.6428 96.5822 93.6966 96.3612 93.8041C96.1462 93.9057 95.9759 94.046 95.8505 94.2252C95.725 94.4044 95.6653 94.6075 95.6713 94.8345ZM103.592 97.2806C103.461 97.2806 103.365 97.2537 103.306 97.2C103.252 97.1462 103.219 97.0626 103.207 96.9491L103.243 96.5011C103.183 96.5966 103.091 96.7072 102.965 96.8326C102.84 96.9521 102.675 97.0596 102.472 97.1552C102.269 97.2448 102.021 97.2896 101.729 97.2896C101.442 97.2896 101.173 97.2328 100.922 97.1193C100.677 97.0058 100.459 96.8475 100.268 96.6444C100.083 96.4413 99.9366 96.2084 99.8291 95.9456C99.7275 95.6827 99.6768 95.402 99.6768 95.1033C99.6768 94.8106 99.7275 94.5358 99.8291 94.279C99.9366 94.0162 100.086 93.7862 100.277 93.5891C100.468 93.392 100.686 93.2366 100.931 93.1232C101.182 93.0097 101.448 92.9529 101.729 92.9529C101.991 92.9529 102.215 92.9888 102.401 93.0604C102.586 93.1261 102.744 93.2157 102.875 93.3292C103.013 93.4368 103.132 93.5592 103.234 93.6966L103.216 93.3203C103.21 93.1889 103.237 93.0963 103.297 93.0425C103.362 92.9828 103.464 92.9529 103.601 92.9529C103.715 92.9529 103.795 92.9708 103.843 93.0067C103.897 93.0425 103.933 93.0933 103.951 93.159C103.969 93.2247 103.978 93.3053 103.978 93.4009V96.8595C103.978 96.9431 103.969 97.0178 103.951 97.0835C103.933 97.1492 103.897 97.197 103.843 97.2268C103.789 97.2627 103.706 97.2806 103.592 97.2806ZM101.863 96.5369C102.102 96.5369 102.32 96.4742 102.517 96.3488C102.72 96.2233 102.878 96.0561 102.992 95.847C103.111 95.632 103.171 95.387 103.171 95.1123C103.171 94.8315 103.108 94.5866 102.983 94.3776C102.864 94.1625 102.702 93.9953 102.499 93.8758C102.302 93.7504 102.084 93.6876 101.845 93.6876C101.564 93.6876 101.319 93.7533 101.11 93.8848C100.907 94.0102 100.746 94.1804 100.627 94.3955C100.507 94.6105 100.447 94.8554 100.447 95.1302C100.447 95.399 100.507 95.6409 100.627 95.856C100.746 96.065 100.91 96.2323 101.119 96.3577C101.334 96.4772 101.582 96.5369 101.863 96.5369ZM107.089 97.2896C106.808 97.2896 106.569 97.2627 106.372 97.2089C106.181 97.1552 106.022 97.0715 105.897 96.958C105.772 96.8445 105.682 96.6982 105.628 96.519C105.574 96.3338 105.548 96.1068 105.548 95.838V91.8777C105.548 91.7941 105.556 91.7224 105.574 91.6627C105.592 91.6029 105.628 91.5581 105.682 91.5283C105.736 91.4924 105.819 91.4745 105.933 91.4745C106.046 91.4745 106.133 91.4924 106.193 91.5283C106.252 91.5581 106.291 91.6029 106.309 91.6627C106.327 91.7164 106.336 91.7851 106.336 91.8688V95.838C106.336 95.9933 106.348 96.1188 106.372 96.2144C106.402 96.304 106.444 96.3726 106.497 96.4204C106.557 96.4682 106.635 96.4981 106.73 96.51C106.826 96.522 106.942 96.528 107.08 96.528C107.175 96.528 107.253 96.5369 107.313 96.5548C107.372 96.5728 107.417 96.6086 107.447 96.6624C107.477 96.7161 107.492 96.7968 107.492 96.9043C107.492 97.0178 107.474 97.1044 107.438 97.1641C107.408 97.2179 107.36 97.2507 107.295 97.2627C107.235 97.2806 107.166 97.2896 107.089 97.2896ZM105.082 93.0515L105.942 93.0604L107.187 93.0425C107.271 93.0425 107.342 93.0515 107.402 93.0694C107.462 93.0813 107.507 93.1172 107.537 93.1769C107.572 93.2307 107.59 93.3143 107.59 93.4278C107.59 93.5413 107.575 93.6279 107.546 93.6876C107.516 93.7414 107.471 93.7772 107.411 93.7952C107.351 93.8131 107.28 93.822 107.196 93.822L105.969 93.8041L105.064 93.8131C104.938 93.8131 104.852 93.7832 104.804 93.7235C104.762 93.6637 104.741 93.5652 104.741 93.4278C104.741 93.2964 104.768 93.2008 104.822 93.1411C104.876 93.0813 104.962 93.0515 105.082 93.0515Z" fill="#424242"/>
</svg>
