<svg width="200" height="54" viewBox="0 0 200 54" fill="none" xmlns="http://www.w3.org/2000/svg">
<path d="M12.8079 12.8067C14.9191 12.8067 16.6784 10.0067 16.6784 6.60671C16.6784 3.20771 14.9894 0.407715 12.8079 0.407715C10.6263 0.407715 9.00774 3.20771 9.00774 6.60671C9.00774 10.0067 10.6967 12.8067 12.8079 12.8067ZM34.2013 12.8067C36.3125 12.8067 38.0718 10.0067 38.0718 6.60671C38.0718 3.20771 36.3828 0.407715 34.2013 0.407715C32.0901 0.407715 30.3308 3.20771 30.3308 6.60671C30.3308 10.0067 32.0901 12.8067 34.2013 12.8067ZM42.3645 36.1067C39.6904 42.8057 35.1161 47.3057 29.3455 45.6067C32.8642 40.9077 35.3272 33.9077 35.6087 23.7067C32.5123 20.5067 28.0788 18.5067 23.5046 18.5067C18.9303 18.5067 14.4968 20.5067 11.4004 23.7067C11.6819 33.9077 14.145 40.9077 17.6636 45.6067C11.9634 47.3057 7.45954 42.9077 4.78536 36.4077L0 41.2067C5.06685 53.8067 15.2709 56.3067 23.5749 51.1067C31.879 56.4077 42.2238 53.8057 47.2203 41.0067L42.3645 36.1067ZM23.5749 41.7067C20.5489 38.2067 18.6488 33.1067 18.2266 27.6067C19.2822 26.7077 21.3934 26.0067 23.5046 26.0067C25.6158 26.0067 27.7973 26.7067 28.7825 27.6067C28.4307 33.1067 26.5306 38.1067 23.5749 41.7067Z" fill="#F58220"/>
<path d="M12.8079 12.8071C14.9191 12.8071 16.6784 10.0071 16.6784 6.60713C16.6784 3.20813 14.9894 0.408129 12.8079 0.408129C10.6263 0.408129 9.00774 3.20813 9.00774 6.60713C9.00774 10.0071 10.6967 12.8071 12.8079 12.8071ZM34.2013 12.8071C36.3125 12.8071 38.0718 10.0071 38.0718 6.60713C38.0718 3.20813 36.3828 0.408129 34.2013 0.408129C32.0901 0.408129 30.3308 3.20813 30.3308 6.60713C30.3308 10.0071 32.0901 12.8071 34.2013 12.8071ZM42.3645 36.1071C39.6904 42.8061 35.1161 47.3061 29.3455 45.6071C32.8642 40.9081 35.3272 33.9081 35.6087 23.7071C32.5123 20.5071 28.0788 18.5071 23.5046 18.5071C18.9303 18.5071 14.4968 20.5071 11.4004 23.7071C11.6819 33.9081 14.145 40.9081 17.6636 45.6071C11.9634 47.3061 7.45954 42.9081 4.78536 36.4081L0 41.2071C5.06685 53.8071 15.2709 56.3071 23.5749 51.1071C31.879 56.4081 42.2238 53.8061 47.2203 41.0071L42.3645 36.1071ZM23.5749 41.7071C20.5489 38.2071 18.6488 33.1071 18.2266 27.6071C19.2822 26.7081 21.3934 26.0071 23.5046 26.0071C25.6158 26.0071 27.7973 26.7071 28.7825 27.6071C28.4307 33.1071 26.5306 38.1071 23.5749 41.7071ZM48.3462 38.7071C48.3462 38.9081 48.3462 39.0081 48.2759 39.2071C48.2055 39.5081 48.0647 39.7071 47.7833 39.9081C47.7129 40.0081 47.5721 40.0081 47.4314 40.0081C47.2906 40.0081 47.2203 40.0081 47.0795 39.9081C47.0091 39.8061 46.8684 39.7071 46.798 39.6071C46.7277 39.5071 46.6573 39.4081 46.6573 39.2071C46.5869 38.9081 46.5869 38.5081 46.6573 38.2071C46.7277 38.1071 46.7277 37.9081 46.8684 37.8071C46.9388 37.7071 47.0091 37.6081 47.1499 37.5081C47.2203 37.4081 47.361 37.4081 47.5018 37.4081C47.6425 37.4081 47.7129 37.4081 47.8536 37.5081C47.924 37.6081 48.0647 37.6081 48.1351 37.8071C48.2055 37.9091 48.2759 38.0081 48.3462 38.2071V38.7071ZM48.1351 38.7071C48.1351 38.6071 48.1351 38.4081 48.0647 38.3071C48.0647 38.2071 47.9944 38.1081 47.924 38.0081C47.8536 37.9081 47.7833 37.8071 47.7129 37.8071C47.6425 37.7071 47.5721 37.7071 47.4314 37.7071C47.361 37.7071 47.2203 37.7071 47.1499 37.8071C47.0795 37.8071 47.0091 37.9091 46.9388 38.0081C46.8684 38.1071 46.798 38.2071 46.798 38.3071C46.7277 38.4091 46.7277 38.6081 46.7277 38.7071C46.7277 38.8061 46.7277 39.0081 46.798 39.1071C46.798 39.2071 46.8684 39.3061 46.9388 39.4081C47.0795 39.6071 47.2203 39.7071 47.4314 39.7071C47.5018 39.7071 47.6425 39.7071 47.7129 39.6071C47.7833 39.5071 47.8536 39.5071 47.924 39.4081C47.9944 39.3061 48.0647 39.2071 48.0647 39.1071C48.1351 39.0081 48.1351 38.9081 48.1351 38.7071ZM47.361 39.4081H47.1499V38.1071H47.5018C47.5721 38.1071 47.7129 38.1071 47.7833 38.2071C47.8536 38.3071 47.8536 38.4081 47.8536 38.5081C47.8536 38.6081 47.8536 38.7071 47.7833 38.8071C47.7129 38.9091 47.6425 38.9091 47.5721 38.9091L47.8536 39.5091H47.6425L47.4314 38.9091H47.2906L47.361 39.4081ZM47.5018 38.7071H47.7129C47.7129 38.7071 47.7833 38.7071 47.7833 38.6071V38.4071L47.7129 38.3051H47.361V38.7051H47.5018V38.7071ZM64.2505 1.60713C65.095 1.60713 65.8691 1.70813 66.6432 1.90813C67.2766 2.10713 67.9099 2.50813 68.5433 3.00813C69.0359 3.50813 69.4581 4.20813 69.7396 5.00813C70.0211 6.00813 70.1619 7.00813 70.1619 8.10813C70.1619 9.30813 69.9507 10.4091 69.5285 11.4091C69.0359 12.4091 68.4025 13.1081 67.6284 13.6081C68.684 14.0081 69.5285 14.8081 70.1619 16.1081C70.7248 17.3081 71.0063 18.8081 71.0063 20.3081C71.0063 21.5081 70.8656 22.7081 70.4433 23.8081C70.0915 24.7081 69.5989 25.6081 68.9655 26.2081C68.3322 26.8081 67.6284 27.3081 66.8543 27.6071C66.0802 27.9081 65.2357 28.0081 64.4616 28.0081H55.5947V1.60713H64.2505ZM63.7579 12.2081C64.3913 12.2081 65.0246 12.0081 65.5172 11.5081C66.0098 10.9081 66.2913 10.0081 66.221 9.10813C66.221 8.60813 66.1506 8.10813 66.0098 7.60813C65.8691 7.20913 65.658 6.90913 65.3765 6.70913C65.095 6.50913 64.8135 6.30913 64.4616 6.20913C64.1802 6.10813 63.8283 6.10813 63.4764 6.10813H59.6763V12.3081L63.7579 12.2081ZM63.969 23.4081C64.3209 23.4081 64.7431 23.3071 65.095 23.2081C65.4469 23.1071 65.7284 22.9081 66.0802 22.6071C66.3617 22.3071 66.5728 22.0071 66.7136 21.5071C66.9247 21.0071 66.9951 20.4071 66.9951 19.8071C66.9951 18.5071 66.7136 17.5071 66.221 16.9081C65.5876 16.3071 64.8839 16.0081 64.1098 16.0081H59.6763V23.2081L63.969 23.4081ZM76.425 23.3071C77.6918 24.7071 79.3807 24.8071 80.7178 23.7071C81.14 23.3071 81.4919 22.7071 81.703 22.0071H84.9402C84.4476 24.3071 83.6031 25.9071 82.5475 26.9071C81.3512 27.9071 80.0141 28.4071 78.677 28.4071C77.6918 28.4071 76.7065 28.2061 75.8621 27.7061C75.0176 27.3061 74.3139 26.6051 73.6805 25.7061C73.0471 24.8061 72.6249 23.7061 72.3434 22.5061C71.9916 21.2061 71.8508 19.8061 71.8508 18.5061C71.8508 17.1061 71.9916 15.8061 72.3434 14.5061C72.9768 12.1061 74.2435 10.2061 75.8621 9.20613C76.7769 8.70613 77.6918 8.40613 78.677 8.40613C79.7326 8.40613 80.7178 8.70613 81.6327 9.30513C82.4771 9.90613 83.1809 10.8051 83.7438 11.8051C84.3068 12.9061 84.7291 14.1051 84.9402 15.4061C85.1513 16.8051 85.292 18.2061 85.2217 19.6051H75.5102C75.5806 21.3071 75.9324 22.6071 76.425 23.3071ZM80.5771 13.3071C80.0141 12.6071 79.3103 12.2071 78.6066 12.3071C78.114 12.3071 77.6214 12.4081 77.1288 12.7071C76.7769 12.9071 76.4251 13.3071 76.2139 13.7071C76.0028 14.1061 75.7917 14.5071 75.7213 15.0071C75.6509 15.4071 75.5806 15.8071 75.5806 16.3071H81.5623C81.4215 15.2081 81.14 14.2081 80.5771 13.3071ZM89.5848 23.1071C89.7255 23.5071 89.9367 23.8071 90.2182 24.1071C90.4996 24.4081 90.7811 24.6071 91.133 24.7081C91.4849 24.8081 91.8367 24.9081 92.1886 24.9081C92.4701 24.9081 92.7516 24.9081 93.0331 24.8071C93.3146 24.7071 93.5961 24.6071 93.8072 24.4081C94.0183 24.2081 94.2294 24.0081 94.3702 23.7081C94.5109 23.4081 94.6516 23.0081 94.6516 22.6071C94.6516 21.8071 94.2998 21.2081 93.5257 20.8071C92.5151 20.3023 91.4803 19.9013 90.4293 19.6071C89.8663 19.4081 89.3737 19.2081 88.8811 19.0071C88.3885 18.8071 87.9662 18.5071 87.544 18.1071C87.1217 17.7081 86.8402 17.2081 86.5588 16.7081C86.2773 16.1071 86.2069 15.3081 86.2069 14.6071C86.2069 13.5071 86.3476 12.5071 86.6995 11.6071C87.0514 10.8071 87.4736 10.2081 88.0366 9.80713C88.5996 9.30713 89.2329 9.00713 89.8663 8.80713C90.57 8.60713 91.2737 8.50713 91.9775 8.50713C92.6812 8.50713 93.3849 8.60713 94.0887 8.80713C94.722 9.00713 95.3554 9.30713 95.9184 9.80713C96.4814 10.3071 96.9036 10.9081 97.2554 11.7071C97.6073 12.6061 97.8184 13.6061 97.8888 14.6061H94.3702C94.3702 13.8061 94.0887 13.0061 93.5961 12.6061C93.0331 12.2071 92.4701 12.0061 91.9071 12.0061C91.696 12.0061 91.4849 12.0061 91.2034 12.1061C90.9923 12.1061 90.7811 12.2071 90.57 12.3061C90.3589 12.4071 90.2182 12.6061 90.0774 12.8061C89.9367 13.1061 89.8663 13.4071 89.8663 13.7061C89.8663 14.1051 90.007 14.5061 90.2182 14.8061C90.4996 15.1061 90.8515 15.4071 91.133 15.5061C91.5552 15.7061 92.0478 15.9061 92.4701 16.0061C92.9627 16.2061 93.4553 16.3061 94.0183 16.5061C94.5109 16.7061 95.0739 16.9061 95.5665 17.1061C96.0591 17.3061 96.4813 17.7071 96.9036 18.1061C97.3258 18.5061 97.6073 19.0061 97.8888 19.6061C98.1703 20.3061 98.2407 21.1061 98.2407 21.8061C98.3111 23.9071 97.6073 25.9071 96.2702 27.0061C95.6369 27.5061 95.0035 27.9071 94.2998 28.1061C93.5961 28.3051 92.822 28.4071 92.0479 28.4071C91.2738 28.4071 90.4996 28.3051 89.7959 28.1061C89.0922 27.9071 88.4588 27.5061 87.8255 27.0061C86.5588 25.9061 85.7847 23.9061 85.7847 21.8061H89.3033C89.3033 22.2081 89.3737 22.7081 89.5848 23.1071ZM106.826 8.80713V12.3071H104.152V21.7071C104.152 22.6061 104.222 23.2071 104.433 23.5071C104.645 23.8071 105.067 23.9071 105.7 23.9071H106.263C106.474 23.9071 106.615 23.8061 106.826 23.8061V27.8061C106.474 27.9081 106.122 27.9081 105.771 28.0071H104.645C104.082 28.0071 103.589 27.9071 103.026 27.8061C102.533 27.7071 102.111 27.5071 101.689 27.2071C101.267 26.9071 100.985 26.4071 100.774 25.8071C100.563 25.1071 100.422 24.3071 100.422 23.5071V12.4071H98.1703V8.80713H100.422V3.10713H104.082V8.80713H106.826ZM127.375 1.60713V6.50713H118.438V12.6071H126.179V17.1071H118.438V28.0081H114.356V1.60713H127.375ZM131.949 8.80713V12.3071H132.02C132.16 11.7071 132.442 11.2071 132.723 10.7071C133.005 10.2071 133.357 9.80713 133.709 9.40713C134.061 9.00713 134.483 8.80613 134.905 8.60613C135.327 8.40713 135.82 8.30613 136.242 8.30613C136.524 8.30613 136.805 8.40713 137.016 8.50613V13.4061C136.805 13.3051 136.594 13.3051 136.383 13.3051C136.172 13.3051 135.89 13.2051 135.679 13.2051C135.116 13.2051 134.483 13.3051 133.99 13.7051C133.568 14.0051 133.146 14.4051 132.864 15.0051C132.583 15.6051 132.372 16.2051 132.231 16.9051C132.09 17.7051 132.02 18.5051 132.02 19.3041V27.9051H128.36V8.90513H131.949V8.80713ZM141.379 8.80713V27.8071H137.72V8.80713H141.379ZM141.45 3.00713C141.45 4.50713 140.605 5.70713 139.55 5.70713C138.494 5.70713 137.65 4.50713 137.65 3.00713C137.65 1.50713 138.494 0.307129 139.55 0.307129C140.605 0.307129 141.45 1.50713 141.45 3.00713ZM147.361 23.3071C148.628 24.7071 150.317 24.8071 151.654 23.7071C152.076 23.3071 152.428 22.7071 152.639 22.0071H155.876C155.384 24.3071 154.539 25.9071 153.483 26.9071C152.287 27.9071 150.95 28.4071 149.613 28.4071C148.628 28.4071 147.643 28.2061 146.798 27.7061C145.954 27.3061 145.25 26.6051 144.616 25.7061C143.983 24.8061 143.561 23.7061 143.279 22.5061C142.928 21.2061 142.787 19.8061 142.787 18.5061C142.787 17.1061 142.928 15.8061 143.279 14.5061C143.913 12.1061 145.179 10.2061 146.798 9.20613C147.713 8.70613 148.628 8.40613 149.613 8.40613C150.669 8.40613 151.654 8.70613 152.569 9.30513C153.413 9.90613 154.117 10.8051 154.68 11.8051C155.243 12.9061 155.665 14.1051 155.876 15.4061C156.087 16.8051 156.228 18.2061 156.158 19.6051H146.517C146.446 21.3071 146.798 22.6071 147.361 23.3071ZM151.513 13.3071C150.95 12.6071 150.246 12.2071 149.472 12.3071C148.98 12.3071 148.487 12.4081 147.994 12.7071C147.643 12.9071 147.291 13.3071 147.08 13.7071C146.868 14.1061 146.657 14.5071 146.587 15.0071C146.517 15.4071 146.446 15.8071 146.446 16.3071H152.428C152.287 15.2081 152.006 14.2081 151.513 13.3071ZM160.873 8.80713V11.4081H160.943C161.365 10.4081 161.999 9.50813 162.773 9.00813C163.476 8.50813 164.251 8.30813 165.025 8.20813C165.869 8.20813 166.643 8.40813 167.417 8.80813C167.98 9.10813 168.543 9.70813 168.895 10.4091C169.247 11.1081 169.529 12.0091 169.669 12.9091C169.81 14.0091 169.88 15.0091 169.88 16.1081V27.8081H166.221V17.1081C166.221 15.5081 166.08 14.4091 165.728 13.6081C165.376 12.8081 164.743 12.4091 163.899 12.4091C162.913 12.4091 162.139 12.8081 161.717 13.7091C161.295 14.5091 161.013 15.9091 161.013 17.9091V27.9091H157.354V8.90913H160.873V8.80713ZM181.351 25.4081C180.929 26.4081 180.366 27.2081 179.662 27.6071C178.888 28.1071 178.114 28.3071 177.27 28.3071C176.355 28.3071 175.44 28.0081 174.595 27.5081C173.821 27.0081 173.188 26.2081 172.695 25.3081C172.203 24.3081 171.78 23.2081 171.569 22.0081C171.288 20.8081 171.217 19.5081 171.217 18.2081C171.217 16.9081 171.358 15.7081 171.569 14.5081C171.78 13.4081 172.203 12.3081 172.695 11.3081C173.751 9.30813 175.369 8.20813 177.129 8.30813C177.903 8.30813 178.677 8.50813 179.381 9.00813C180.084 9.50813 180.647 10.2081 181.07 11.1081H181.14V1.60813H184.799V27.9091H181.281L181.351 25.4081ZM181.14 16.0071C181.07 15.3071 180.859 14.7071 180.577 14.1071C180.296 13.6071 180.014 13.1071 179.592 12.8071C179.099 12.4081 178.607 12.3071 178.114 12.3071C177.551 12.3071 177.058 12.5071 176.566 12.8071C176.144 13.1071 175.792 13.6071 175.581 14.2071C175.299 14.8071 175.158 15.4071 175.018 16.1061C174.877 16.8061 174.877 17.6061 174.877 18.3061C174.877 19.0061 174.947 19.8061 175.088 20.5061C175.229 21.2061 175.369 21.9061 175.651 22.5061C175.932 23.1061 176.284 23.5061 176.636 23.9061C177.058 24.3051 177.621 24.5061 178.114 24.4061C178.677 24.4061 179.17 24.2061 179.662 23.9061C180.084 23.6051 180.366 23.1051 180.647 22.5061C180.929 21.9071 181.07 21.2061 181.14 20.5061C181.281 19.7061 181.281 19.0061 181.281 18.2061C181.351 17.5071 181.281 16.8071 181.14 16.0071ZM189.796 23.1071C189.937 23.5071 190.148 23.9081 190.429 24.1071C190.711 24.4081 190.992 24.6071 191.344 24.7081C191.696 24.8081 192.048 24.9081 192.4 24.9081C192.681 24.9081 192.963 24.9081 193.244 24.8071C193.526 24.7071 193.807 24.6071 194.018 24.4081C194.229 24.2081 194.441 23.9081 194.581 23.6071C194.722 23.3071 194.792 22.9081 194.792 22.5071C194.792 21.7071 194.441 21.1071 193.666 20.7071C192.681 20.2071 191.626 19.8071 190.57 19.5071C190.007 19.3071 189.514 19.1071 189.022 18.9071C188.529 18.7071 188.107 18.4071 187.685 18.0071C187.262 17.6071 186.981 17.1071 186.699 16.6071C186.418 16.0071 186.348 15.2081 186.348 14.5071C186.348 13.4071 186.488 12.4071 186.84 11.5071C187.192 10.7071 187.614 10.1071 188.177 9.70713C188.74 9.20713 189.374 8.90713 190.007 8.70713C190.711 8.50713 191.414 8.40713 192.118 8.40713C192.822 8.40713 193.526 8.50713 194.229 8.70713C194.863 8.90713 195.496 9.20713 196.059 9.70713C196.622 10.2071 197.044 10.8071 197.396 11.6061C197.748 12.5061 198.03 13.5061 198.03 14.5061H194.511C194.511 13.7061 194.229 12.9061 193.737 12.5061C193.174 12.1061 192.611 11.9061 192.048 11.9061C191.837 11.9061 191.626 11.9061 191.344 12.0061C191.133 12.0061 190.922 12.1061 190.711 12.2061C190.5 12.3061 190.359 12.5061 190.218 12.7061C190.077 13.0061 190.007 13.3061 190.007 13.6051C190.007 14.0051 190.148 14.4061 190.359 14.7061C190.64 15.0061 190.992 15.3061 191.274 15.4061C191.696 15.6051 192.189 15.8051 192.611 15.9061C193.103 16.1051 193.596 16.2061 194.159 16.4061C194.652 16.6051 195.215 16.8051 195.707 17.0061C196.2 17.2071 196.622 17.6061 197.044 18.0061C197.467 18.4061 197.748 18.9061 198.03 19.5061C198.311 20.2061 198.381 21.0061 198.381 21.7061C198.381 22.8061 198.241 23.9061 197.818 24.8061C197.467 25.6061 196.974 26.3061 196.411 26.9071C195.848 27.4071 195.144 27.8061 194.441 28.0071C193.737 28.2061 192.963 28.3061 192.189 28.3061C191.414 28.3061 190.64 28.2061 189.937 28.0071C189.233 27.8061 188.6 27.4071 187.966 26.9071C186.7 25.8061 185.925 23.8061 185.925 21.7071H189.444C189.585 22.2081 189.655 22.7081 189.796 23.1071ZM200 7.30713C200 7.50713 200 7.80713 199.93 8.00713C199.859 8.20713 199.789 8.40713 199.648 8.60713C199.507 8.80713 199.367 8.90813 199.226 9.00713C199.085 9.10613 198.944 9.10713 198.804 9.10713C198.663 9.10713 198.452 9.10713 198.311 9.00713C198.17 8.90713 198.03 8.80713 197.889 8.60713C197.748 8.40813 197.678 8.20813 197.607 8.00713C197.537 7.80713 197.537 7.50713 197.537 7.30713C197.537 7.10713 197.537 6.80713 197.607 6.60713C197.818 6.00713 198.241 5.50713 198.733 5.50713C198.874 5.50713 199.085 5.50713 199.226 5.60713C199.367 5.70813 199.507 5.80713 199.648 6.00713C199.789 6.20713 199.859 6.40713 199.93 6.60713C199.93 6.90813 200 7.10713 200 7.30713ZM199.718 7.30713C199.718 7.10713 199.719 6.90813 199.648 6.70713C199.578 6.50613 199.507 6.40713 199.437 6.20713C199.367 6.10613 199.226 6.00713 199.156 5.90713C199.015 5.80613 198.944 5.80613 198.804 5.80613C198.663 5.80613 198.522 5.80613 198.381 5.90713C198.241 6.00713 198.17 6.10613 198.1 6.20713C198.03 6.30713 197.959 6.50713 197.889 6.70713C197.818 7.10613 197.818 7.50713 197.889 7.90713C197.959 8.10613 198.03 8.20713 198.1 8.40713C198.311 8.70713 198.522 8.80613 198.804 8.80613C198.944 8.80613 199.085 8.80613 199.156 8.70613C199.296 8.60513 199.367 8.50613 199.437 8.40613C199.507 8.30513 199.578 8.10513 199.648 7.90613C199.719 7.80713 199.718 7.60713 199.718 7.30713ZM198.522 8.40813H198.311V6.40813H198.804C198.944 6.40813 199.085 6.40813 199.156 6.50813C199.296 6.70813 199.367 7.10813 199.226 7.30813C199.156 7.40913 199.085 7.40913 198.944 7.40913L199.367 8.30813H199.156L198.804 7.50813H198.593L198.522 8.40813ZM198.804 7.20813H199.015L199.085 7.10713V6.80713L199.015 6.70713H198.593V7.30713L198.804 7.20813ZM57.4947 47.3071C57.4947 49.5081 58.6911 50.3071 60.0281 50.3071C60.8726 50.3071 62.2801 49.9091 62.2801 48.3071C62.2801 46.6081 60.5911 46.3071 58.9022 45.6081C57.2132 45.0081 55.5243 44.0081 55.5243 41.0081C55.5243 37.7071 57.7058 36.1081 59.817 36.1081C62.2097 36.1081 64.3913 37.6081 64.3913 41.3071H61.9282C61.8578 39.3071 60.8726 38.8071 59.6763 38.8071C58.9022 38.8071 57.917 39.3071 57.917 40.6081C57.917 41.8071 58.4799 42.0081 61.2949 43.1081C62.1393 43.4091 64.6728 44.1081 64.6728 47.8071C64.6728 50.8071 63.0542 53.0081 59.9578 53.0081C57.4243 53.0081 55.102 51.2071 55.102 47.2071L57.4947 47.3071ZM65.7987 44.5081C65.9395 41.5081 67.8395 40.6081 69.6692 40.6081C71.2878 40.6081 73.2583 41.1081 73.2583 43.9091V50.1081C73.1879 51.0081 73.3286 51.9091 73.5398 52.7081H71.2174C71.1471 52.3081 71.0767 52.0091 71.0767 51.6081C70.3026 52.6081 69.3174 53.1081 68.3322 53.1081C66.784 53.1081 65.5172 52.0081 65.5172 49.6081C65.5172 46.9091 66.9247 46.3071 68.3322 46.0081C69.7396 45.7071 71.0063 45.8071 71.0063 44.5081C71.0063 43.2071 70.3026 42.9081 69.5285 42.9081C68.684 42.9081 68.121 43.4081 68.0507 44.7071L65.7987 44.5081ZM71.0063 46.9081C70.5841 47.4081 69.81 47.4081 69.1063 47.6071C68.4025 47.8061 67.7692 48.2071 67.7692 49.3061C67.7692 50.4081 68.4025 50.8061 69.1766 50.8061C70.936 50.8061 71.0063 48.8061 71.0063 48.1071V46.9081ZM79.3103 52.7071H76.7769L73.962 41.0081H76.3547L78.114 49.0081L79.8733 41.0081H82.1253L79.3103 52.7071ZM84.5883 47.6071C84.6587 49.6071 85.3624 50.6071 86.6291 50.6071C87.544 50.6071 88.2477 49.8061 88.3885 49.1071H90.3589C89.7255 51.9081 88.3885 53.0071 86.4884 53.0071C83.8846 53.0071 82.266 50.5071 82.266 46.8061C82.266 43.3061 83.955 40.6071 86.4884 40.6071C89.3033 40.6071 90.6404 44.0071 90.4996 47.6071H84.5883ZM88.2477 45.5081C88.0366 43.9081 87.544 43.0081 86.418 43.0081C85.4328 42.9081 84.5883 44.0081 84.5179 45.4081V45.5081H88.2477ZM98.7333 39.5081H95.3554V36.5081H104.715V39.5081H101.267V52.7071H98.7333V39.5081ZM105.771 36.5081H108.023V42.6081H108.093C108.586 41.4091 109.5 40.7081 110.486 40.6081C112.878 40.6081 113.512 42.5081 113.512 45.4091V52.6081H111.26V46.0081C111.26 44.1081 110.837 43.1081 109.782 43.1081C108.586 43.1081 108.023 44.1081 108.023 46.5081V52.7071H105.771V36.5081ZM116.749 47.6071C116.819 49.6071 117.523 50.6071 118.79 50.6071C119.704 50.6071 120.408 49.8061 120.549 49.1071H122.59C121.956 51.9081 120.619 53.0071 118.719 53.0071C116.115 53.0071 114.497 50.5071 114.497 46.8061C114.497 43.3061 116.186 40.6071 118.719 40.6071C121.534 40.6071 122.871 44.0071 122.73 47.6071H116.749ZM120.479 45.5081C120.267 43.9081 119.775 43.0081 118.649 43.0081C117.664 42.9081 116.819 44.0081 116.749 45.4081V45.5081H120.479ZM123.786 40.9081H125.897V42.5081C126.46 41.3071 127.445 40.6081 128.431 40.6081C129.486 40.6081 130.401 41.2081 130.823 42.6081C131.386 41.4091 132.301 40.7081 133.286 40.6081C135.046 40.6081 136.312 41.8071 136.312 44.8071V52.7071H134.061V46.1071C134.061 44.5071 133.99 43.2071 132.653 43.2071C131.316 43.2071 131.105 44.7071 131.105 46.2071V52.7071H128.853V46.1071C128.853 44.7071 128.923 43.2071 127.445 43.2071C127.023 43.2071 125.897 43.6071 125.897 45.9081V52.7071H123.645V40.9081H123.786ZM145.391 36.5081H147.994L152.287 52.7071H149.683L148.839 49.1071H144.546L143.631 52.7071H141.098L145.391 36.5081ZM145.109 46.4081H148.065L146.657 40.5081L145.109 46.4081ZM152.709 36.5081H154.961V52.7071H152.709V36.5081ZM156.791 36.5081H159.043V52.7071H156.791V36.5081ZM164.18 38.8071C164.18 39.1081 164.11 39.4091 164.039 39.7071C163.969 40.0081 163.828 40.2071 163.688 40.4081C163.547 40.6071 163.336 40.8061 163.195 40.9081C162.984 41.0081 162.773 41.1071 162.562 41.1071C162.35 41.1071 162.139 41.0071 161.928 40.9081C161.717 40.8061 161.576 40.6071 161.436 40.4081C161.295 40.2071 161.154 39.9081 161.084 39.7071C161.013 39.4081 160.943 39.1071 160.943 38.8071C160.943 38.5081 161.013 38.2071 161.084 37.9091C161.154 37.6081 161.295 37.4091 161.436 37.2081C161.576 37.0091 161.787 36.8081 161.928 36.7081C162.139 36.6081 162.35 36.5091 162.562 36.5091C162.773 36.5091 162.984 36.6091 163.195 36.7081C163.406 36.8081 163.547 37.0091 163.688 37.2081C163.828 37.4091 163.969 37.7081 164.039 37.9091C164.18 38.1071 164.18 38.5081 164.18 38.8071ZM163.828 38.8071C163.828 38.5081 163.828 38.3071 163.758 38.0081C163.688 37.8071 163.617 37.6081 163.476 37.4081C163.336 37.2071 163.265 37.1071 163.054 37.0081C162.913 36.9081 162.702 36.9081 162.562 36.9081C162.421 36.9081 162.21 36.9081 162.069 37.0081C161.928 37.1081 161.787 37.2071 161.647 37.4081C161.506 37.6071 161.436 37.8061 161.365 38.0081C161.295 38.2071 161.295 38.5081 161.295 38.8071C161.295 39.1081 161.295 39.3071 161.365 39.5081C161.436 39.7071 161.506 39.9081 161.647 40.1081C161.787 40.3071 161.858 40.4091 162.069 40.5081C162.21 40.6081 162.421 40.7071 162.562 40.7071C162.702 40.7071 162.913 40.7071 163.054 40.6071C163.195 40.5071 163.336 40.4081 163.476 40.2071C163.617 40.0081 163.688 39.8071 163.758 39.6071C163.828 39.3071 163.899 39.0081 163.828 38.8071ZM162.28 40.1071H161.999V37.6071H162.702C162.843 37.6071 163.054 37.6071 163.195 37.8061C163.336 37.9081 163.406 38.1071 163.336 38.4081C163.333 38.5934 163.283 38.771 163.195 38.9081C163.125 39.0081 162.984 39.1071 162.843 39.1071L163.336 40.2071H162.984L162.491 39.1071H162.21L162.28 40.1071ZM162.632 38.7071H162.773C162.843 38.7071 162.843 38.7071 162.913 38.6071C162.984 38.6071 162.984 38.5071 162.984 38.5071C162.984 38.4071 163.054 38.4071 163.054 38.3061C163.054 38.2061 163.054 38.2061 162.984 38.1071L162.913 38.0071C162.843 38.0071 162.843 38.0071 162.773 37.9071H162.28V38.6061L162.632 38.7071Z" fill="#F58220"/>
</svg>
