<svg width="47" height="39" viewBox="0 0 47 39" fill="none" xmlns="http://www.w3.org/2000/svg">
<path d="M42.1883 38.1875C43.4315 38.1875 44.6238 37.6936 45.5029 36.8146C46.3819 35.9355 46.8758 34.7432 46.8758 33.5V22.0531C46.8758 20.8099 46.3819 19.6176 45.5029 18.7386C44.6238 17.8595 43.4315 17.3656 42.1883 17.3656H35.6821C35.6821 15.7203 35.7805 14.0703 35.9727 12.425C36.2633 10.6813 36.7508 9.12969 37.4258 7.775C38.1055 6.41563 38.9774 5.35156 40.0461 4.57344C41.1102 3.70156 42.4649 3.26563 44.1149 3.26563V-4C41.4008 -4 39.0289 -3.41875 36.9899 -2.25625C34.9686 -1.10554 33.2307 0.483368 31.9039 2.39375C30.5723 4.49991 29.5909 6.80796 28.9977 9.22813C28.4 11.8989 28.1075 14.6289 28.1258 17.3656V33.5C28.1258 34.7432 28.6197 35.9355 29.4987 36.8146C30.3778 37.6936 31.5701 38.1875 32.8133 38.1875H42.1883ZM14.0633 38.1875C15.3065 38.1875 16.4988 37.6936 17.3779 36.8146C18.2569 35.9355 18.7508 34.7432 18.7508 33.5V22.0531C18.7508 20.8099 18.2569 19.6176 17.3779 18.7386C16.4988 17.8595 15.3065 17.3656 14.0633 17.3656H7.55706C7.55706 15.7203 7.6555 14.0703 7.84769 12.425C8.13831 10.6813 8.62581 9.12969 9.30081 7.775C9.9805 6.41563 10.8524 5.35156 11.9211 4.57344C12.9852 3.70156 14.3399 3.26563 15.9899 3.26563V-4C13.2758 -4 10.9039 -3.41875 8.86487 -2.25625C6.84356 -1.10554 5.1057 0.483368 3.77894 2.39375C2.44734 4.49991 1.46586 6.80796 0.872688 9.22813C0.274966 11.8989 -0.0175339 14.6289 0.000812241 17.3656V33.5C0.000812241 34.7432 0.494672 35.9355 1.37375 36.8146C2.25283 37.6936 3.44511 38.1875 4.68831 38.1875H14.0633Z" fill="#E74B4C"/>
</svg>
